<svg width="800" height="800" viewBox="0 0 800 800" fill="none" xmlns="http://www.w3.org/2000/svg">
<path d="M0 0H800V800H0V0Z" fill="#F3F3F3"/>
<path d="M192.663 386.424C192.663 386.424 168.049 377.94 172.02 404.415C176.023 430.841 191.098 452.309 167.275 462.638C143.452 472.952 121.227 487.829 142.661 497.072C156.698 503.118 175.99 509.724 190.802 520.664C192.433 479.822 209.863 441.451 226.734 413.51L192.663 386.424Z" fill="#030104"/>
<path d="M641.38 665.975C630.227 666.172 619.452 664.492 611.527 662.877C603.636 661.23 598.529 659.632 598.529 659.632C598.529 659.632 620.21 661.493 640.211 656.518C650.145 654.244 659.388 649.928 663.391 645.71C664.33 644.656 665.121 643.75 665.434 642.943C665.549 642.811 665.483 642.811 665.533 642.712C665.137 632.201 664.067 620.767 662.007 608.757C655.45 610.618 648.316 611.541 641.347 611.623C630.177 611.821 619.419 610.141 611.511 608.526C603.603 606.878 598.512 605.28 598.512 605.28C598.512 605.28 620.177 607.142 640.178 602.167C647.46 600.486 654.346 597.718 659.108 594.703C653.951 572.956 645.219 550.418 630.54 530.154C624.378 521.636 620.309 504.601 616.239 492.063C581.263 453.297 527.175 380.411 536.516 308.563C537.834 298.464 539.366 288.381 540.882 278.298C543.617 260.307 546.418 241.707 547.917 223.436C550.536 191.211 542.81 171.259 525.56 141.241L524.357 139.116C517.306 126.892 508.525 111.438 505.049 95.7535C504.142 96.8409 503.187 97.9282 502.281 98.9991C497.717 103.76 492.593 107.714 488.672 110.433C484.619 112.97 481.917 114.667 481.917 114.667C481.917 114.667 484.257 112.509 487.733 109.28C491.061 105.919 495.196 101.19 498.541 96.0501C500.04 93.3976 501.671 90.8439 502.511 88.2573C503.055 87.137 503.335 86.0332 503.549 84.9953C503.5 83.842 503.665 82.7052 503.698 81.5684C491.654 64.3519 477.996 44.5982 470.978 33.4775C463.498 21.6319 452.097 0 431.668 0C413.068 0 386.955 17.9414 349.49 77.5485C349.49 77.5485 348.864 77.6474 348.073 77.7792C349.49 78.9489 350.907 80.1186 352.209 81.519C355.981 85.2753 359.194 89.839 362.308 94.4355C365.158 99.1804 367.876 103.991 369.854 108.769C371.995 113.464 373.28 118.127 374.565 122.048C376.872 130.005 377.267 135.541 377.267 135.541C377.267 135.541 376.378 134.454 375.043 132.444C373.84 130.384 371.699 127.616 369.689 124.19C365.488 117.468 359.903 108.505 354.301 99.5428C349.424 92.0466 344.581 84.6163 339.852 79.3608C333.246 80.7447 324.184 83.0347 314.827 86.3792C315.238 87.0711 315.617 87.6642 316.046 88.4056C319.703 94.8474 324.119 103.596 327.529 112.723C331.055 121.817 333.575 131.29 335.124 138.523C336.656 145.772 336.953 150.863 336.953 150.863C336.953 150.863 333.789 146.859 330.115 140.418C326.458 133.992 322.059 125.228 318.632 116.1C315.123 107.006 312.602 97.5329 311.054 90.3003C310.872 89.4436 310.757 88.7186 310.609 87.9114C304.151 90.4485 297.956 93.5294 292.7 97.2033C292.651 104.288 293.969 113.102 295.32 121.965C297.099 132.378 298.862 142.79 300.197 150.616C300.971 154.52 301.202 158.013 301.679 160.353C302.009 162.741 302.075 164.142 302.075 164.142C302.075 164.142 298.681 159.743 295.122 152.263C293.475 148.49 291.333 144.141 289.817 139.215C288.12 134.338 286.951 128.934 285.929 123.498C285.188 117.995 284.562 112.443 284.891 107.138C284.974 103.612 285.567 100.35 286.325 97.2528C276.538 95.4735 253.144 91.7171 228.942 91.7171C189.484 91.7171 148.164 101.718 161.361 146.612C179.566 208.509 190.785 224.49 195.612 239.746C196.782 240.158 198.084 240.521 199.583 240.619C202.235 241.18 205.283 241.015 208.331 241.015C214.443 240.652 220.605 239.384 225.169 238.165C229.699 236.748 232.714 235.792 232.714 235.792C232.714 235.792 229.897 237.291 225.696 239.549C221.38 241.624 215.416 244.112 209.023 245.727C205.778 246.336 202.532 247.144 199.253 247.111C198.627 247.177 198.034 247.078 197.425 247.078C197.853 249.516 198.15 252.086 198.281 254.969C199.468 279.979 210.193 350.245 266.159 375.254C266.159 375.254 250.277 392.421 234.065 419.259C216.799 447.827 199.237 487.384 200.061 528.852C200.654 558.804 210.934 589.728 237.838 618.312C237.575 617.933 237.377 617.637 237.377 617.637C237.377 617.637 238.629 618.213 240.804 619.202C246.109 621.624 251.331 623.601 256.636 625.149C256.389 624.227 256.126 623.255 255.944 622.447C255.269 619.844 254.972 618.016 254.972 618.049C254.89 617.571 255.17 617.225 255.549 617.274C255.697 617.274 255.829 617.34 255.961 617.439C255.961 617.439 257.427 618.51 259.437 620.273C260.459 621.146 261.678 622.167 262.864 623.288C264.363 624.721 265.368 625.924 266.077 627.291C269.454 627.835 272.93 628.098 276.489 628.098C276.374 627.687 276.258 627.357 276.126 626.846C275.665 625.281 275.303 623.749 275.006 622.447C274.331 619.844 274.034 618.016 274.034 618.049C273.952 617.571 274.232 617.225 274.611 617.274C274.759 617.274 274.891 617.34 275.023 617.439C275.023 617.439 276.489 618.51 278.499 620.273C279.52 621.146 280.739 622.167 281.926 623.288C283.557 624.853 284.611 626.138 285.32 627.686C288.895 627.275 292.503 626.682 295.732 625.347C297.61 624.573 299.505 623.963 301.3 623.37C304.941 622.283 307.759 620.026 309.933 619.202C312.059 618.164 313.327 617.637 313.327 617.637C313.327 617.637 312.569 618.757 311.12 620.668C301.218 633.568 285.007 640.175 268.844 637.588C264.627 636.913 259.948 635.71 256.093 633.848C251.661 631.69 248.02 628.955 244.642 625.841C241.776 640.488 229.008 766.869 286.621 794.761C287.066 791.367 288.384 788.088 289.768 785.667C291.234 783.146 292.948 781.548 292.948 781.548C292.948 781.548 294.249 783.508 295.073 786.276C295.864 789.077 296.457 792.751 295.979 796.277C295.913 796.919 295.666 797.496 295.551 798.122C298.664 798.979 301.959 799.555 305.436 799.868C305.436 799.044 305.337 798.221 305.452 797.397C305.815 793.855 307.264 790.412 308.698 787.907C310.164 785.387 311.878 783.789 311.878 783.789C311.878 783.789 313.179 785.749 314.003 788.533C314.794 791.334 315.387 794.992 314.909 798.517C314.86 799.028 314.662 799.506 314.563 800C329.209 799.423 346.574 794.563 367.415 783.739C367.415 783.739 391.914 787.347 427.846 787.347C453.794 787.347 485.707 785.469 518.674 778.978C518.674 778.978 538.444 790.593 563.766 792.8C563.403 791.614 563.008 790.412 562.843 789.159C562.333 785.617 562.876 781.943 563.651 779.159C564.441 776.358 565.71 774.381 565.71 774.381C565.71 774.381 567.44 775.946 568.923 778.467C570.405 780.971 571.888 784.365 572.284 787.94C572.564 789.703 572.564 791.515 572.399 793.245C575.974 793.212 579.615 792.932 583.305 792.438C582.581 790.642 581.987 788.715 581.74 786.688C581.213 783.146 581.757 779.472 582.531 776.671C583.273 773.903 584.541 771.91 584.541 771.91C584.541 771.91 586.288 773.492 587.77 775.996C589.237 778.5 590.719 781.91 591.115 785.485C591.395 787.298 591.378 789.159 591.197 790.955C619.304 783.92 648.168 759.323 662.716 694.46C662.716 694.46 665.105 681.61 665.681 662.021C658.201 664.805 649.651 665.859 641.38 665.975ZM529.003 566.382C529.003 575.197 521.853 582.347 513.039 582.347C504.225 582.347 497.075 575.197 497.075 566.382C497.075 557.568 504.225 550.418 513.039 550.418C521.87 550.418 529.003 557.552 529.003 566.382ZM469.133 626.006C484.438 620.981 499.595 615.511 515.082 611.211C522.117 609.251 526.796 613.88 527.933 620.932C529.218 628.823 523.105 635.051 512.512 635.957C514.373 630.421 515.889 625.924 517.949 619.811C500.617 621.755 486.201 633.436 469.133 626.006ZM419.378 602.035C415.012 601.063 410.465 600.914 405.951 600.387C397.4 613.897 383.396 620.405 371.237 607.603C390.052 606.829 397.845 594.95 400.843 578.343C401.799 578.591 402.754 578.805 403.726 579.052C405.572 582.808 407.433 586.548 409.443 590.601C435.902 591.853 440.631 594.374 441.52 608.13C442.328 620.322 433.777 630.784 421.025 633.173C413.183 634.623 406.544 629.219 403.38 619.795C409.938 619.103 417.17 619.482 423.365 617.159C426.363 616.055 427.434 609.778 429.362 605.84C426.05 604.539 422.821 602.809 419.378 602.035ZM397.861 681.313C393.199 675.843 389.723 671.79 384.994 666.288C399.015 665.678 401.156 668.133 397.861 681.313ZM438.753 578.014C427.714 578.442 416.28 579.085 405.687 576.663C398.57 574.999 392.655 568.294 385.241 563.203C405.028 563.203 421.717 562.758 438.357 563.565C441.586 563.73 444.552 568.887 447.649 571.72C444.684 573.928 441.784 577.899 438.753 578.014ZM441.982 437.283C443.81 442.819 446.941 450.233 452.312 456.345C454.19 459.08 456.776 461.304 459.412 463.363C454.799 465.637 449.676 467.021 444.206 467.021C425.012 467.021 409.46 451.452 409.46 432.275C409.443 413.065 424.996 397.512 444.189 397.512C463.399 397.512 478.935 413.065 478.935 432.242C478.935 442.127 474.784 450.974 468.194 457.301C467.452 456.938 466.744 456.526 466.002 456.131C463.498 454.467 460.269 453.33 457.699 450.974C452.064 446.74 448.242 440.611 445.095 436.163C442.525 431.138 440.812 427.777 440.812 427.777C440.713 427.579 440.499 427.481 440.285 427.53C440.021 427.579 439.856 427.843 439.922 428.107C439.922 428.074 440.746 431.748 441.982 437.283ZM437.995 549.545C432.838 541.34 444.123 539.676 449.857 538.539C453.382 537.831 457.946 537.979 461.175 536.249C462.526 535.541 471.472 525.821 468.375 524.98C460.088 522.723 451.01 522.954 442.74 520.631C441.669 513.201 464.075 506.116 469.429 503.942C472.873 502.541 477.799 504.765 482.049 505.326C481.209 509.527 480.797 513.876 479.479 517.896C478.392 521.175 476.233 524.107 474.537 527.205C475.393 528.061 476.25 528.902 477.09 529.758C477.865 530.533 491.901 525.244 494.142 525.26C497.206 525.293 511.326 530.121 505.049 535.953C502.643 538.177 498.739 539.544 495.345 539.825C486.234 540.566 480.534 540.17 478.721 549.99C476.085 564.323 480.649 575.955 474.619 589.991C473.416 589.761 472.214 589.563 470.994 589.349C470.154 575.576 469.281 561.802 468.441 547.815C468.606 551.077 442.196 556.25 437.995 549.545ZM496.745 605.494C497.388 608.065 494.422 614.16 492.84 614.259C483.499 614.836 480.039 608.46 478.029 598.97C486.876 597.207 494.34 595.873 496.745 605.494ZM487.881 217.983C488.013 217.95 488.145 218.016 488.178 218.147C488.211 218.263 488.145 218.378 488.046 218.427C488.046 218.427 476.052 223.65 464.915 230.092C459.215 233.189 453.943 236.632 449.593 238.725C445.211 240.784 441.85 241.723 441.85 241.723C441.735 241.773 441.586 241.723 441.52 241.608C441.487 241.526 441.52 241.41 441.553 241.344C441.553 241.344 443.646 238.774 447.484 235.578C449.412 234.029 451.669 232.151 454.371 230.586C457.04 228.988 460.203 227.967 463.218 226.681C475.196 221.195 487.881 217.983 487.881 217.983ZM473.565 192.397C473.696 192.331 473.845 192.364 473.911 192.479C473.976 192.578 473.943 192.71 473.861 192.792C473.861 192.792 463.729 201.03 454.733 210.239C450.087 214.753 445.919 219.482 442.311 222.678C438.67 225.841 435.672 227.637 435.672 227.637C435.573 227.719 435.408 227.719 435.326 227.604C435.276 227.538 435.276 227.423 435.293 227.34C435.293 227.34 436.627 224.293 439.445 220.19C440.894 218.18 442.575 215.758 444.75 213.534C446.875 211.294 449.659 209.449 452.213 207.389C462.23 198.904 473.565 192.397 473.565 192.397ZM411.354 196.384C411.437 194.456 412.722 192.907 413.463 191.062C415.259 187.438 418.686 184.67 421.602 181.787C425.062 179.414 428.258 176.844 431.932 175.592C433.728 174.917 435.227 173.912 437.072 173.73C438.802 173.417 440.417 173.121 441.932 172.841C444.865 172.248 447.188 172.791 448.868 172.676C450.532 172.725 451.471 172.742 451.471 172.742C451.735 172.742 451.949 172.973 451.933 173.236C451.933 173.467 451.751 173.648 451.57 173.697C451.57 173.697 450.631 173.912 449 174.291C447.451 174.801 444.881 174.884 442.459 176.136C440.005 177.338 437.22 178.36 434.551 180.452C431.652 182.05 429.395 184.835 426.973 187.191C425.177 190.189 423.233 192.875 422.162 195.807C420.449 198.394 419.213 200.997 417.928 203.303C416.379 205.544 415.984 207.752 414.93 209.251C414.122 210.783 413.48 211.722 413.48 211.722C413.348 211.986 413.035 212.101 412.771 211.969C412.689 211.92 412.574 211.788 412.524 211.722C412.524 211.722 412.063 210.783 411.585 209.02C411.14 207.29 410.283 204.605 410.597 201.475C410.844 199.893 411.091 198.196 411.354 196.384ZM356.789 281.346C358.749 280.72 361.171 280.358 363.395 279.287C365.735 278.38 367.662 276.815 369.26 275.135C370.513 273.125 371.419 271.066 371.748 268.743C372.209 266.568 372.028 264.311 372.193 262.531C372.111 261.164 372.028 260.027 371.962 259.006C366.46 257.918 360.891 254.014 359.474 251.542C357.398 247.918 365.076 248.923 371.666 245.15C378.256 241.361 381.287 234.26 383.363 237.868C384.895 240.537 385.423 248.231 383.001 253.651C383.808 254.426 384.516 255.167 385.505 255.826C387.367 257.243 389.459 258.05 391.765 258.594C394.072 258.66 396.543 258.413 398.85 257.391C401.173 256.584 403.15 255.134 404.979 254.179C408.339 251.691 410.58 250.043 410.58 250.043C410.58 250.043 408.718 252.152 405.934 255.332C404.303 256.683 402.623 258.594 400.25 260.06C397.96 261.708 395.077 262.811 391.765 263.355C388.454 263.405 385.208 262.844 382.473 261.592C381.716 261.296 381.238 260.9 380.562 260.538C380.447 261.279 380.332 262.054 380.2 262.927C379.557 265.233 379.162 267.952 377.926 270.687C376.888 273.504 374.977 276.206 372.605 278.496C369.886 280.44 367.069 281.708 364.268 282.153C361.567 282.779 359.013 282.631 356.904 282.812C352.686 282.549 349.886 282.367 349.886 282.367C349.886 282.367 352.67 281.972 356.789 281.346ZM347.777 389.802C352.653 388.83 357.926 387.792 363.511 386.672C368.98 385.074 374.73 383.475 380.661 382.042C386.592 380.592 392.705 379.175 398.965 378.006C405.193 376.737 411.19 374.332 417.384 372.668C423.595 371.004 429.79 369.356 435.902 367.725C441.768 365.468 447.616 363.458 453.382 361.596C459.215 359.817 464.833 358.137 469.858 355.814C474.948 353.622 480.023 351.893 484.718 350.212C493.467 345.945 501.671 343.095 506.811 340.327C512.347 337.889 515.543 336.126 515.543 336.126C515.543 336.126 514.225 339.404 510.617 344.495C507.24 349.965 501.259 356.341 493.565 363.936C489.512 367.313 485.015 370.938 480.039 374.48C475.179 378.302 469.759 381.795 463.762 384.645C460.78 386.21 457.534 387.726 454.42 389.275C451.109 388.5 447.748 387.973 444.206 387.973C430.597 387.973 418.554 394.267 410.432 403.954C408.537 404.382 406.659 404.926 404.731 405.14C397.861 406.013 391.041 406.607 384.483 407.117C377.91 407.628 371.567 407.925 365.586 408.106C359.573 407.842 353.873 406.87 348.666 406.195C327.776 403.394 314.497 398.962 314.497 398.962C314.497 398.962 328.188 393.756 347.777 389.802ZM309.11 300.128C304.744 302.171 298.73 304.082 292.733 306.537C280.69 311.1 269.075 317.064 269.075 317.064C268.96 317.13 268.811 317.081 268.746 316.965C268.696 316.866 268.729 316.735 268.828 316.652C268.828 316.652 279.339 308.876 291.135 303.06C294.051 301.545 296.836 299.749 299.752 298.694C302.668 297.607 305.551 297.03 307.973 296.503C312.882 295.564 316.194 295.564 316.194 295.564C316.326 295.564 316.441 295.679 316.441 295.811C316.441 295.894 316.359 295.992 316.309 296.025C316.309 296.025 313.459 298.052 309.11 300.128ZM263.572 251.197C264.66 249.911 265.599 247.72 267.823 245.727C268.943 244.689 270.146 243.552 271.431 242.349C272.683 240.982 274.38 240.372 275.995 239.334C279.191 237.127 283.161 236.089 287.115 234.721C291.168 234.095 295.435 232.991 299.406 233.7C301.333 234.211 303.343 234.095 304.941 235.183C306.556 236.039 308.072 236.847 309.472 237.605C312.158 239.219 313.822 241.509 314.942 242.893C316.062 244.326 316.556 245.249 316.556 245.249C316.688 245.513 316.589 245.826 316.326 245.957C316.243 246.007 316.062 246.023 315.98 246.007C315.98 246.007 314.843 245.957 313.13 245.71C311.301 245.677 309.291 244.689 306.572 244.59C303.953 244.244 301.119 243.684 298.022 243.536C295.023 242.646 291.712 242.596 288.236 242.267C284.908 242.827 281.333 242.975 278.318 244.343C275.039 245.249 272.568 246.864 270.129 248.132C267.675 249.351 266.077 251.361 264.742 252.3C263.474 253.388 262.749 253.997 262.749 253.997C262.551 254.162 262.238 254.146 262.073 253.948C261.925 253.783 261.925 253.536 262.04 253.355C262.073 253.322 262.617 252.547 263.572 251.197ZM257.262 279.171C257.131 279.188 257.015 279.089 256.999 278.957C256.982 278.842 257.065 278.726 257.18 278.694C257.18 278.694 269.8 275.283 282.914 274.163C286.176 273.817 289.438 273.158 292.536 273.24C295.649 273.29 298.533 273.8 300.987 274.196C305.897 275.102 308.994 276.321 308.994 276.321C309.126 276.371 309.176 276.502 309.126 276.634C309.093 276.717 308.994 276.766 308.912 276.799C308.912 276.799 305.518 277.639 300.707 277.985C295.897 278.298 289.603 277.886 283.128 277.985C270.245 277.837 257.262 279.171 257.262 279.171ZM335.256 739.652C333.032 738.614 330.247 736.653 326.474 735.302C324.629 734.61 322.636 733.852 320.527 733.061C318.533 732.04 316.029 732.106 313.756 731.43C309.159 730.014 304.035 730.112 299.01 729.602C294.002 730.112 288.878 729.981 284.265 731.398C282.008 732.106 279.438 732.04 277.543 733.012C275.467 733.77 273.523 734.495 271.711 735.17C267.971 736.455 264.907 738.63 262.732 739.635C260.541 740.755 259.206 741.316 259.206 741.316C259.206 741.316 260.014 740.113 261.562 738.202C263.358 736.505 264.874 733.177 268.597 730.837C270.459 729.585 272.469 728.218 274.594 726.768C276.72 725.071 279.257 724.396 281.876 723.407C284.512 722.567 287.165 721.15 290.13 721.084C293.046 720.738 296.028 720.409 298.994 720.063C301.959 720.409 304.941 720.738 307.858 721.051C310.823 721.117 313.476 722.534 316.112 723.374C318.715 724.379 321.318 725.088 323.344 726.686C325.42 728.103 327.397 729.453 329.209 730.673C332.9 732.979 334.696 736.554 336.442 738.202C338.007 740.129 338.765 741.299 338.765 741.299C338.765 741.299 337.43 740.772 335.256 739.652ZM303.047 592.034C216.107 540.846 270.887 443.181 270.887 443.181C293.508 401.499 316.145 425.322 366.163 489.608C369.919 494.436 372.671 499.147 374.961 503.777C374.384 504.205 373.676 504.469 373.33 505.144C373.33 505.144 372.226 507.253 370.463 509.527C368.865 512.08 366.147 515.194 363.082 518.209C360.331 521.603 356.558 523.646 353.971 525.672C351.27 527.6 349.474 528.885 349.474 528.885C349.474 528.885 351.533 528.111 354.63 526.99C357.678 525.738 362.226 524.602 365.949 521.998C369.919 519.774 373.824 517.237 376.509 514.782C377.564 513.959 378.173 513.398 378.832 512.805C395.489 565.41 325.997 602.447 303.047 592.034ZM384.467 715.713C381.007 718.481 374.763 718.283 369.755 718.316C368.025 718.316 365.059 715.153 364.895 713.225C364.763 711.578 367.481 708.925 369.508 708.019C373.923 706.059 378.849 705.284 383.297 703.406C387.746 701.512 391.897 698.843 396.164 696.503C396.922 697.212 397.664 697.887 398.421 698.563C393.874 704.411 390.085 711.215 384.467 715.713ZM407.318 728.383C406.165 728.333 404.995 728.3 403.842 728.251C403.842 722.666 403.71 717.064 403.875 711.496C404.056 705.812 404.55 700.161 404.929 694.048C395.818 692.22 388.372 690.869 381.024 689.089C378.602 688.496 376.444 686.799 371.155 684.031C380.793 684.031 387.367 683.125 393.594 684.229C403.496 685.943 406.873 682.071 406.247 672.762C405.967 668.594 406.198 664.393 406.198 660.258C399.608 656.996 393.116 653.783 386.625 650.587C386.889 649.829 387.152 649.055 387.4 648.28C392.062 648.28 396.972 649.203 401.288 648C404.979 646.979 408.01 643.536 411.008 641.427C413.249 643.717 415.506 646.929 418.571 648.857C421.47 650.669 425.21 651.114 428.587 652.136C428.653 653.272 428.703 654.426 428.769 655.562C424.156 656.946 419.559 658.33 413.134 660.258C412.755 666.799 412.326 674.492 411.882 682.664C425.292 685.168 438.472 676.782 452.196 685.877C439.412 697.623 424.287 687.936 412.162 694.46C407.598 704.873 415.621 718.168 407.318 728.383ZM434.354 670.341C430.548 673.537 426.726 676.749 422.92 679.929C421.256 678.545 419.608 677.128 417.944 675.712C420.432 671.444 422.92 667.194 425.408 662.96C428.39 665.464 431.372 667.902 434.354 670.341ZM461.554 726.356C456.019 727.443 448.819 728.234 444.502 725.549C434.057 719.008 424.897 710.408 415.21 702.648C415.984 701.479 416.758 700.292 417.516 699.139C423.299 702.385 428.769 706.537 434.93 708.662C442.097 711.133 449.939 711.594 457.386 713.39C460.681 714.197 463.762 716.059 466.958 717.443C465.195 720.573 463.877 725.895 461.554 726.356ZM507.124 735.566C503.813 745.764 491.901 750.459 481.736 749.075C476.234 748.334 470.484 746.884 468.227 741.859C468.095 741.579 467.996 741.299 467.881 741.003C461.356 722.023 484.273 718.069 495.954 716.932C506.63 715.911 510.073 726.587 507.124 735.566ZM492.61 670.785C505.263 666.172 515.362 667.935 519.135 675.58C522.133 681.643 516.795 696.767 509.266 701.956C500.814 707.772 491.44 709.848 482.395 703.769C474.158 698.266 469.396 690.654 473.911 680.292C467.37 679.55 461.867 678.941 456.068 678.265C466.777 670.291 476.003 663.635 484.784 656.485C485.591 655.843 483.664 651.823 483.384 650.818C487.634 647.934 491.457 645.331 495.312 642.745C494.686 641.773 494.076 640.817 493.434 639.845C486.382 640.224 480.814 641.839 477.486 650.109C474.586 657.325 468.622 662.235 459.775 658.577C462.642 655.002 465.179 651.246 467.798 647.671C455.623 643.651 453.333 637.473 458.572 623.354C462.23 632.3 464.981 639.021 468.26 647.028C471.159 643.157 474.174 639.565 477.898 636.929C483.763 632.744 492.709 632.481 500.403 631.608C501.457 631.492 504.488 637.885 504.39 641.196C504.258 644.557 501.408 647.852 500.847 654.805C508.953 653.437 517.042 651.855 525.214 650.801C528.18 650.422 531.293 651.213 534.358 651.46C533.27 654.063 532.859 657.391 530.964 659.138C522.364 667.161 511.853 669.303 501.424 664.096C492.56 659.665 489.134 663.125 485.311 672.054C488.804 671.477 490.798 671.428 492.61 670.785ZM618.628 718.843C615.811 718.267 612.137 716.768 607.474 716.306C605.151 716.01 602.68 715.73 600.044 715.4C597.474 714.824 594.64 715.598 591.807 715.466C586.139 715.219 580.307 716.883 574.392 717.789C571.575 718.794 568.741 719.783 565.957 720.771C563.058 721.529 560.652 723.176 558.098 724.461C555.743 725.977 552.843 726.719 550.981 728.448C548.889 729.997 546.895 731.447 545.067 732.798C541.277 735.467 538.592 738.91 536.483 740.739C534.424 742.732 533.155 743.803 533.155 743.803C533.155 743.803 533.748 742.255 534.984 739.652C536.565 737.246 537.389 733.111 540.931 729.388C542.661 727.476 544.539 725.368 546.533 723.143C548.428 720.689 551.097 719.222 553.749 717.311C556.484 715.598 559.021 713.291 562.333 712.319C565.496 711.084 568.725 709.848 571.938 708.579C575.348 708.069 578.758 707.558 582.136 707.031C585.48 706.224 588.858 706.981 592.054 707.097C595.233 707.426 598.397 707.393 601.165 708.563C603.932 709.486 606.535 710.359 608.957 711.166C613.784 712.566 616.931 715.927 619.452 717.196C621.841 718.827 623.076 719.832 623.076 719.832C623.076 719.832 621.38 719.552 618.628 718.843Z" fill="#030104"/>
<path d="M492.56 720.969C491.951 723.77 492.033 726.702 491.868 729.404C489.776 727.625 487.14 725.318 483.417 722.122C479.924 727.625 477.024 732.172 474.158 736.735C474.504 738.053 474.866 739.355 475.196 740.657C482.362 740.228 489.694 740.574 496.498 738.844C498.244 738.367 498.837 731.414 499.019 727.394C499.15 724.923 497.602 722.303 496.432 719.964C496.3 719.651 492.709 720.326 492.56 720.969Z" fill="#030104"/>
<path d="M493.483 694.971C499.282 691.659 504.291 687.03 509.596 682.829C506.894 680.456 504.192 678.084 503.467 677.441C492.593 677.112 486.053 679.336 485.97 687.953C485.954 690.391 492.511 695.531 493.483 694.971Z" fill="#030104"/>
<path d="M304.546 510.169C311.78 510.169 317.644 504.305 317.644 497.072C317.644 489.838 311.78 483.974 304.546 483.974C297.312 483.974 291.448 489.838 291.448 497.072C291.448 504.305 297.312 510.169 304.546 510.169Z" fill="#030104"/>
<path d="M533.831 136.513C534.803 138.177 535.61 139.726 536.516 141.34C541.327 149.94 545.446 157.997 548.708 165.921C554.111 179.002 557.225 192.018 557.752 207.208C557.934 212.595 557.934 218.164 557.406 224.243C557.126 227.752 556.665 231.245 556.319 234.738C553.667 259.846 549.268 284.773 545.989 309.815C545.495 313.555 545.643 317.311 545.495 321.068C545.446 322.55 545.297 324.017 545.297 325.499C545.297 375.04 573.981 425.322 605.662 464.929C608.99 469.08 612.302 473.1 615.679 477.005C618.661 480.481 621.61 483.858 624.592 487.088C624.971 487.532 625.399 488.01 625.778 488.439C618.628 480.629 622.945 445.158 624.246 433C626.322 413.658 630.82 394.695 635.565 375.847C643.341 344.792 649.849 313.308 653.061 281.494C652.04 281.857 650.985 282.269 649.882 282.433C646.735 283.323 643.39 283.405 640.095 283.685C633.505 283.817 627.096 283.01 622.401 282.153C617.738 281.099 614.625 280.39 614.625 280.39C614.625 280.39 617.788 280.506 622.516 280.671C627.245 280.638 633.522 280.226 639.519 278.957C642.468 278.133 645.433 277.507 647.839 276.255C650.458 275.366 652.27 273.718 653.704 272.73C653.753 272.647 653.786 272.647 653.836 272.581C654.626 262.647 655.071 252.679 655.104 242.679C653.424 243.42 651.71 244.063 649.865 244.359C646.718 245.249 643.374 245.331 640.079 245.611C633.489 245.743 627.08 244.936 622.368 244.079C617.722 243.025 614.608 242.316 614.608 242.316C614.608 242.316 617.771 242.432 622.5 242.596C627.228 242.498 633.505 242.069 639.486 240.817C642.418 239.993 645.4 239.367 647.822 238.115C650.425 237.226 652.237 235.578 653.671 234.59C654 234.029 654.264 233.716 654.643 233.469C654.808 233.486 654.906 233.206 655.005 232.942C654.972 231.772 655.022 230.603 654.972 229.433C652.962 169.826 646.685 94.139 589.204 60.0025C579.681 54.3515 565.512 50.3975 551.92 50.3975C533.386 50.3975 515.972 57.7948 513.27 78.3393C513.237 78.4711 513.27 78.6029 513.237 78.7182C512.907 81.4037 512.957 84.155 513.204 86.9558C513.55 90.7616 514.373 94.6332 515.56 98.5378C519.662 112.179 527.751 125.887 533.831 136.513ZM557.571 73.7592C557.72 73.7757 557.851 73.8251 557.983 73.924C557.983 73.924 559.466 75.0278 561.459 76.7742C562.481 77.6309 563.7 78.6523 564.87 79.7726C568 82.7546 573.206 86.3297 573.453 90.9922C573.75 96.0007 571.311 99.5428 566.336 96.429C561.904 93.6777 560.29 88.0596 559.054 83.3148C558.593 81.7497 558.23 80.2339 557.95 78.8995C557.275 76.3293 556.962 74.5006 556.962 74.5006C556.929 74.0722 557.192 73.7263 557.571 73.7592ZM541.343 83.7267C541.492 83.7432 541.623 83.8091 541.755 83.8914C541.755 83.8914 543.221 84.9788 545.231 86.7416C546.253 87.6148 547.472 88.6198 548.658 89.7401C551.772 92.7386 556.978 96.3137 557.242 100.976C557.522 105.968 555.084 109.51 550.125 106.413C545.709 103.662 544.078 98.0601 542.859 93.2987C542.381 91.7336 542.019 90.2179 541.739 88.8999C541.063 86.2968 540.767 84.501 540.767 84.501C540.684 84.0397 540.964 83.7102 541.343 83.7267Z" fill="#030104"/>
</svg>
