<svg width="683" height="683" viewBox="0 0 683 683" fill="none" xmlns="http://www.w3.org/2000/svg">
<rect width="682.67" height="682.67" fill="white"/>
<g clip-path="url(#clip0_8905_5921)">
<path d="M0 341.333V682.667H341.333H682.667V341.333V4.57764e-05H341.333H0V341.333ZM421.6 39.2C422.133 40 422.667 41.7334 422.667 42.9334C422.667 44.1334 423.333 45.6 424 46C424.8 46.5334 425.333 53.4667 425.333 62.2667C425.333 77.0667 426.933 86.1334 430 88.2667C430.667 88.8001 433.6 89.3334 436.267 89.3334C438.933 89.3334 441.6 89.8667 442 90.6667C442.4 91.3334 444 92.0001 445.467 92.0001C446.8 92.0001 448 92.4001 448 93.0667C448 93.6001 450.267 95.4667 453.067 97.2001C455.867 98.9334 459.6 102.533 461.467 105.2C465.333 111.067 473.333 118.533 475.733 118.667C476.533 118.667 477.333 119.2 477.333 120C477.333 120.667 478.133 121.333 479.067 121.333C480 121.333 483.067 123.333 485.733 125.867C490.133 129.867 490.667 131.067 490.667 137.2C490.667 140.933 490.133 144 489.333 144C488.667 144 488 145.2 488 146.667C488 148.133 487.467 149.333 486.667 149.333C486 149.333 485.333 150.533 485.333 152C485.333 153.467 484.933 154.667 484.267 154.667C483.733 154.667 481.867 156.933 480.133 159.867C478.4 162.667 474.667 166.4 471.867 168.133C468.933 169.867 466.667 171.733 466.667 172.267C466.667 172.933 465.733 173.333 464.667 173.333C463.467 173.333 460.4 175.467 457.733 178.133L452.933 182.933V197.067C452.8 204.933 453.467 215.2 454.267 220C458.267 241.733 459.067 254.667 457.467 268.533C455.333 285.867 451.6 300 449.067 300C448.533 300 447.6 302.4 447.2 305.333C446.667 308.267 445.867 310.667 445.2 310.667C444.533 310.667 444 311.6 444 312.667C444 313.867 442.533 316.267 440.8 318C438.933 319.867 436.4 323.067 435.2 325.333C433.867 327.467 432.267 329.333 431.733 329.333C431.2 329.333 430.667 330.533 430.667 332C430.667 333.467 430.133 334.667 429.467 334.667C428.8 334.667 428 335.733 427.6 336.933C427.067 338.267 425.2 341.867 423.333 345.067C421.467 348.133 420 351.6 420 352.667C420 353.733 419.467 354.667 418.667 354.667C418 354.667 417.333 355.867 417.333 357.333C417.333 358.8 416.8 360 416 360C415.333 360 414.667 360.8 414.667 361.867C414.667 362.933 413.333 366.4 411.867 369.6C406.8 379.733 406.267 381.733 403.733 397.733C402 409.2 403.867 427.6 409.333 454C410.133 457.6 411.333 463.467 412 466.933C412.8 470.533 413.867 476.133 414.667 479.6C415.333 483.2 416.4 488.667 417.2 492C417.867 495.333 418.8 500.267 419.333 502.933C420.133 506.667 421.067 508 422.8 508C424.267 508 425.333 508.533 425.333 509.333C425.333 510.133 429.067 510.667 433.867 510.667C438.667 510.667 442.933 511.2 443.333 512C443.733 512.667 445.6 513.333 447.333 513.333C454 513.333 453.733 524.533 447.067 528.133C445.333 529.067 444 530.267 444 530.933C444 531.467 442.8 532 441.333 532C439.867 532 438.667 532.533 438.667 533.333C438.667 534 436.933 534.667 434.667 534.667C432.533 534.667 430.667 535.2 430.667 536C430.667 536.667 428.933 537.333 426.8 537.333C424.533 537.333 422.4 537.867 422 538.667C421.6 539.333 418.667 540 415.467 540C412.4 540 409.333 540.533 408.533 541.2C406.267 543.467 381.067 544.267 312 544.4C265.733 544.4 239.6 543.867 232 542.8C207.467 539.333 208.533 539.333 204.4 543.467C201.067 546.933 200.667 548.133 200.667 556.667C200.8 563.733 201.467 567.333 203.867 571.867C207.067 578.133 216.133 587.467 220.133 588.667C221.6 589.2 222.667 590.133 222.667 590.8C222.667 591.467 223.467 592 224.4 592C225.333 592 228.667 593.2 231.733 594.667C234.667 596.133 238.133 597.333 239.2 597.333C240.267 597.333 241.467 597.867 241.867 598.533C242.267 599.2 244.533 600 246.933 600.4C249.333 600.8 255.2 602 260 602.933C271.867 605.333 316.8 605.2 327.333 602.8C331.733 601.867 343.2 600.8 352.667 600.4C368.267 600 370.4 600.133 374.4 602.533C376.667 604.133 378.667 605.733 378.667 606.267C378.667 607.6 368.667 614.667 366.933 614.667C366.133 614.667 365.333 615.2 365.067 615.733C364.4 617.333 347.067 622.933 334.667 625.467C318 628.933 306.533 629.867 283.333 629.867C258.267 629.867 244.533 628.8 239.333 626.667C237.867 626 234.933 625.2 232.667 624.933C225.867 623.733 219.2 621.733 214.667 619.467C212.267 618.267 209.467 617.333 208.4 617.333C207.467 617.333 206.667 616.667 206.667 616C206.667 615.2 205.467 614.667 204 614.667C202.533 614.667 201.333 614.133 201.333 613.6C201.333 612.933 199.067 611.333 196.267 610.133C193.6 608.933 189.867 606 188 603.733C186.133 601.333 183.467 598.267 182 596.8C174.4 588.933 168.133 572.4 167.067 557.067C166.4 546.8 166.667 544.267 170 533.733C172.133 527.333 174.267 521.467 174.933 520.667C175.467 520 176 518.133 176 516.4C176 514.667 176.667 513.333 177.333 513.333C178.133 513.333 178.667 511.867 178.667 510.133C178.667 508.267 179.2 506.533 179.867 506.133C183.333 504 182.8 485.867 178.667 450.667C177.867 444.4 176.667 434.8 176 429.333C171.2 389.733 170.667 374.933 173.067 358.667C175.733 340.267 178.4 330 183.333 319.333C184.4 317.067 185.867 313.467 186.667 311.333C189.467 303.6 191.333 300 192.267 300C192.933 300 193.333 299.067 193.333 298C193.333 296.933 194 296 194.667 296C195.467 296 196 295.2 196 294.267C196 293.333 197.067 291.333 198.4 289.867C199.733 288.533 202.267 285.2 204 282.667C208.267 276.667 224 261.333 226 261.333C226.667 261.333 232 256.8 238.267 250.933C240 249.333 242 248 242.8 248C243.467 248 244.8 247.333 245.733 246.667C252 241.467 254 240 256.133 239.333C257.6 238.8 258.667 238 258.667 237.333C258.667 236.667 259.733 235.867 261.067 235.467C262.267 235.067 264.8 233.333 266.667 231.6C268.533 230 272.133 227.2 274.667 225.333C277.2 223.6 279.6 221.733 280 221.333C280.4 220.8 283.2 219.067 286.4 217.333C289.467 215.6 292 213.733 292 213.067C292 212.533 292.933 212 294 212C296.933 212 325.867 182.667 327.6 178C329.733 171.867 332 158.533 332 151.6C332 148.267 332.533 144.133 333.2 142.4C333.867 140.667 335.2 136.533 336.133 132.933C337.2 129.467 338.4 126.667 338.933 126.667C339.467 126.667 340 126 340 125.067C340 122.667 344.4 113.333 345.6 113.333C346.133 113.333 346.667 112.267 346.667 110.933C346.667 109.6 347.867 107.733 349.333 106.667C350.8 105.6 352 103.867 352 102.933C352 100 361.467 92.0001 364.933 92.0001C366.667 92.0001 368 91.4667 368 90.8001C368 90.1334 369.733 89.3334 372 88.9334C375.333 88.1334 385.6 79.4667 390 73.2C392.133 70.4 396 61.8667 396 60.1334C396 59.3334 396.667 58.6667 397.333 58.6667C398.133 58.6667 398.667 57.8667 398.667 56.8C398.667 54.1334 404.133 43.8667 407.467 40.5334C411.867 36 419.067 35.3334 421.6 39.2Z" fill="black"/>
</g>
<defs>
<clipPath id="clip0_8905_5921">
<rect width="682.667" height="682.667" fill="white"/>
</clipPath>
</defs>
</svg>
