<?xml version="1.0" standalone="no"?>
<!DOCTYPE svg PUBLIC "-//W3C//DTD SVG 20010904//EN"
 "http://www.w3.org/TR/2001/REC-SVG-20010904/DTD/svg10.dtd">
<svg version="1.0" xmlns="http://www.w3.org/2000/svg"
 width="560.000000pt" height="560.000000pt" viewBox="0 0 560.000000 560.000000"
 preserveAspectRatio="xMidYMid meet">

<g transform="translate(0.000000,560.000000) scale(0.100000,-0.100000)"
fill="#000000" stroke="none">
<path d="M785 4693 c-90 -121 -174 -334 -212 -536 -34 -182 -19 -698 22 -753
17 -23 83 -21 107 4 19 19 20 24 7 128 -8 64 -14 199 -13 324 0 182 4 231 22
317 26 119 61 221 107 313 56 110 46 106 154 70 181 -59 359 -157 521 -287 47
-37 155 -136 239 -220 104 -102 162 -153 177 -153 29 0 74 44 74 73 0 31 -137
186 -260 295 -222 196 -463 342 -685 416 -80 27 -189 56 -212 56 -7 0 -29 -21
-48 -47z"/>
<path d="M4675 4729 c-233 -53 -507 -194 -740 -379 -167 -133 -355 -334 -355
-379 0 -28 43 -71 71 -71 15 0 77 54 193 168 283 276 476 404 747 492 108 36
97 41 155 -72 77 -151 121 -341 130 -557 6 -121 1 -207 -22 -452 -6 -62 -5
-68 16 -79 27 -14 88 -16 102 -2 34 34 60 450 39 632 -32 275 -109 501 -228
662 -36 50 -42 52 -108 37z"/>
<path d="M940 4264 c-13 -34 -13 -60 3 -71 6 -6 44 -21 82 -33 88 -28 196 -81
257 -127 27 -19 92 -82 146 -139 90 -96 101 -105 126 -98 15 3 34 17 43 30 14
22 13 26 -8 61 -33 55 -154 177 -229 232 -92 67 -161 104 -263 140 -111 39
-144 40 -157 5z"/>
<path d="M4498 4270 c-186 -64 -337 -165 -461 -309 -27 -31 -56 -71 -65 -90
-16 -33 -16 -33 11 -57 16 -13 35 -24 42 -24 8 0 72 57 142 128 143 143 194
177 345 230 57 21 109 41 116 45 15 10 15 38 0 72 -14 31 -49 33 -130 5z"/>
<path d="M480 2520 c-211 -14 -230 -20 -230 -71 0 -46 25 -62 84 -55 133 17
301 26 517 26 336 0 595 -23 871 -77 131 -26 137 -26 163 -9 38 25 31 66 -15
88 -35 17 -268 55 -513 84 -154 18 -685 27 -877 14z"/>
<path d="M4430 2524 c-19 -2 -91 -9 -160 -14 -188 -16 -530 -69 -570 -88 -47
-23 -53 -63 -14 -88 25 -17 31 -17 138 4 286 56 449 73 796 79 267 5 485 -3
626 -23 48 -7 74 12 74 55 0 42 -19 52 -117 62 -92 9 -712 20 -773 13z"/>
<path d="M2621 2190 c-85 -18 -127 -85 -119 -191 4 -53 9 -64 43 -99 21 -21
63 -52 94 -69 83 -44 96 -62 96 -131 -1 -114 -85 -186 -208 -178 -114 8 -183
64 -207 171 -20 91 -29 107 -60 107 -43 0 -53 -21 -48 -94 21 -250 342 -382
530 -217 l43 39 43 -39 c60 -53 125 -73 221 -67 94 6 155 31 213 90 57 56 91
128 96 200 5 67 -7 88 -49 88 -34 0 -38 -5 -55 -87 -26 -124 -87 -181 -200
-191 -81 -6 -142 16 -184 66 -27 33 -30 43 -30 108 0 83 -2 80 109 140 95 50
121 89 121 179 0 68 -26 124 -73 159 -26 19 -43 21 -180 23 -84 1 -172 -2
-196 -7z"/>
<path d="M1426 2169 c-324 -15 -629 -53 -953 -120 -237 -49 -343 -79 -357
-101 -7 -11 -7 -26 0 -45 14 -41 57 -41 216 1 362 95 789 151 1233 162 132 3
248 10 258 16 13 7 17 19 15 41 -6 60 -33 63 -412 46z"/>
<path d="M3760 2168 c-32 -17 -40 -72 -13 -86 10 -5 127 -12 260 -16 450 -12
870 -67 1231 -162 159 -42 202 -42 216 -1 21 58 1 67 -263 126 -404 90 -743
131 -1221 146 -143 5 -191 3 -210 -7z"/>
<path d="M3723 1914 c-4 -1 -20 -5 -34 -8 -35 -8 -47 -50 -23 -77 19 -21 31
-23 199 -39 469 -44 875 -153 1135 -305 93 -55 132 -59 150 -16 20 49 2 65
-163 145 -276 134 -417 176 -831 246 -202 34 -407 60 -433 54z"/>
<path d="M1590 1889 c-373 -56 -624 -113 -790 -178 -133 -52 -370 -171 -383
-192 -7 -12 -6 -26 3 -48 18 -45 55 -41 150 14 261 153 675 264 1140 305 197
18 225 31 201 94 -10 26 -12 26 -103 25 -51 0 -149 -9 -218 -20z"/>
</g>
</svg>
